<svg width="80" height="35" viewBox="0 0 80 35" fill="none" xmlns="http://www.w3.org/2000/svg">
<path fill-rule="evenodd" clip-rule="evenodd" d="M50.6272 15.9111C54.3528 18.8459 60.896 25.5371 54.9092 29.6919C51.0994 32.3351 44.497 32.5249 41.0048 29.1865C36.6282 25.0023 40.247 19.2456 43.8473 16.0545C44.8834 15.1354 45.9993 14.2979 47.1665 13.5207C48.3638 14.2514 49.5241 15.0423 50.6272 15.9111ZM79.3894 1.65365C68.675 1.75016 57.1148 4.36319 47.669 9.88669C45.4982 8.71229 43.353 7.76405 41.5021 7.06431C30.7491 3.00033 17.3818 2.05276 6.20144 4.8733C4.97975 5.18195 4.87113 6.70339 5.57065 7.46704C5.13294 7.08865 4.69976 6.70475 4.27114 6.31533C5.33142 5.23863 6.52677 4.36261 7.92556 3.64871C8.78047 3.21275 9.81254 2.99582 10.619 2.50206C11.0994 2.20809 11.0063 1.81743 11.5734 1.56836C11.7543 1.48893 11.7933 1.19985 11.5618 1.15038C10.9278 1.0154 10.6373 0.551179 9.99755 0.442778C8.98978 0.271587 7.30795 0.852221 6.39799 1.19718C4.13173 2.05626 2.17613 3.49903 0.524979 5.25348C-0.164415 5.98647 -0.021649 7.04023 0.616417 7.73965C2.18037 9.45449 3.98783 10.9475 5.86648 12.3039C7.4944 13.4786 9.26786 14.9185 11.2687 15.2991C12.8374 15.5983 13.8291 13.7504 12.7121 12.607C11.3494 11.2116 9.39906 10.4177 7.81717 9.26978C7.13889 8.77773 6.49522 8.25177 5.86235 7.71359C6.08948 7.85131 6.36458 7.92627 6.68595 7.90311C17.0689 7.15401 26.9166 6.16287 37.1111 9.13713C39.6153 9.86668 42.0675 10.8147 44.4041 11.9881C44.2082 12.1251 44.0045 12.2549 43.8095 12.3951C37.4098 17.0194 31.6357 27.1027 40.3753 32.7586C46.578 36.7739 60.343 35.1188 60.6037 25.8259C60.7705 19.8886 55.9186 15.0117 50.4756 11.5384C53.4515 9.9291 56.613 8.60742 59.6434 7.37976C65.9603 4.8196 72.6759 3.15319 79.3995 2.08726C79.6661 2.04476 79.6776 1.65085 79.3894 1.65365Z" fill="black"/>
</svg>
