<svg width="123" height="116" viewBox="0 0 123 116" fill="none" xmlns="http://www.w3.org/2000/svg">
<mask id="mask0_302_560" style="mask-type:alpha" maskUnits="userSpaceOnUse" x="0" y="0" width="122" height="116">
<rect x="0.681641" y="14.4404" width="109" height="102" transform="rotate(-7.35424 0.681641 14.4404)" fill="#D9D9D9"/>
</mask>
<g mask="url(#mask0_302_560)">
<path fill-rule="evenodd" clip-rule="evenodd" d="M96.6056 77.0068C95.1622 73.4007 94.0734 71.9333 92.1973 70.8573C90.4424 69.8509 87.9777 69.1335 84.4773 68.8289C80.8514 68.6667 80.513 66.8371 79.2417 63.9903C78.8674 63.1335 77.5515 63.0625 77.0796 63.7758C76.9905 63.7015 76.899 63.6347 76.8056 63.5758C76.8263 63.1414 76.0509 62.0043 76.0192 61.5954C75.6876 57.3283 74.026 55.3785 70.4623 55.0339C69.6872 54.9588 64.5608 55.5174 63.853 55.8151C60.7586 57.1163 57.9632 60.3403 58.8844 63.6705C58.047 65.1166 57.1649 66.0471 55.6656 66.6718C53.2852 67.2913 58.9251 101.413 65.7787 121.407C68.7193 129.986 109.903 109.423 107.385 105.262C107.557 104.417 106.939 103.593 107.058 102.728C107.145 102.103 107.534 101.798 107.668 101.172C107.858 100.291 107.388 99.2031 106.941 98.3869C106.748 97.9763 107.08 97.4647 107.132 97.0135C107.381 94.8851 106.224 95.2191 105.196 93.9505C105.208 93.9446 105.302 92.932 105.302 92.9371C105.341 92.2177 104.899 91.3598 104.539 90.8101C104.295 90.4385 103.851 90.2437 103.447 90.342C103.679 88.8892 104.05 87.6574 104.437 86.2367C105.122 83.732 105.744 81.1239 106.891 78.7888C107.36 77.8327 106.784 77.0832 105.833 77.145C102.753 77.3452 99.6755 77.2954 96.6056 77.0068Z" fill="white"/>
<path fill-rule="evenodd" clip-rule="evenodd" d="M58.7604 66.3538L81.4021 67.3815L92.1977 70.8573L94.0243 71.9226L86.4249 90.6091L71.5782 95.3452L69.0029 105.906L71.2573 117.144L95.6118 111.003L106.118 108.358L109.933 118.159L110.017 122.382L109.631 124.579L84.1016 135.133C84.1016 135.133 70.4641 135.566 68.0765 135.875C65.6889 136.183 48.4078 140.18 48.4078 140.18L44.3016 140.27C44.3016 140.27 34.1215 131.983 32.2978 128.802C30.4741 125.62 24.8317 105.577 24.8317 105.577L24.7574 102.395L29.9285 81.4734C29.9285 81.4734 30.8412 80.4012 31.9384 78.6347C33.0356 76.8681 58.7604 66.3538 58.7604 66.3538Z" fill="#9DDADB"/>
<path fill-rule="evenodd" clip-rule="evenodd" d="M102.545 89.96C100.558 90.3199 98.6159 91.054 96.9171 92.1495C96.2222 92.5982 95.617 93.1947 95.5288 94.0588C95.4847 94.4999 95.5661 94.9393 95.6749 95.3651C95.757 95.6877 95.8209 96.1047 96.1343 96.2897C96.1877 96.321 96.2432 96.343 96.3 96.357C95.6712 96.7445 95.0821 97.1886 94.5652 97.6345C94.0929 98.0421 93.6298 98.636 93.4679 99.2594C93.4394 99.1946 93.4114 99.1344 93.3838 99.0772C92.8227 97.929 92.0701 97.0265 90.9992 96.4925C90.8346 96.0991 89.407 94.4989 88.2999 94.7091C87.0875 94.9385 86.1163 95.1547 85.084 95.859C84.6801 95.9022 84.279 95.9596 83.8841 96.0285C83.816 96.0395 83.8313 96.1319 83.8973 96.1311C84.2249 96.1305 84.553 96.134 84.8821 96.1454C85.6638 96.1692 86.4476 96.2261 87.2196 96.3228C88.1457 96.439 89.1028 96.5521 89.9928 96.849C91.7188 97.4264 92.9898 99.3537 93.0144 101.17C93.0181 101.468 93.0189 102.37 92.5998 102.331C92.2456 102.298 92.016 101.598 91.8614 101.347C91.448 100.682 90.8079 100.296 90.0712 100.074C89.206 99.8117 88.2988 99.6763 87.4138 99.4967C86.9126 99.3942 86.4113 99.2916 85.909 99.1904C85.395 99.0852 84.897 98.9126 84.388 99.0983C84.0805 99.2109 84.0928 99.5931 84.2985 99.7866C84.6114 100.082 85.0257 100.127 85.4328 100.212C85.9701 100.325 86.5064 100.437 87.0427 100.55C87.8717 100.723 88.7329 100.849 89.55 101.087L89.5329 101.145C89.4676 101.136 89.4018 101.208 89.424 101.284C89.6321 101.983 89.8997 102.787 89.8132 103.526C89.7452 104.111 89.3284 104.804 88.6603 104.72C88.7499 104.614 88.7667 104.45 88.6792 104.31C88.3524 103.796 84.7186 102.068 84.5231 102.909C84.5168 102.939 84.5503 102.956 84.5742 102.949C84.8223 102.863 85.3055 103.242 85.5274 103.354C85.8477 103.515 86.1718 103.67 86.4896 103.837C86.8374 104.019 87.1788 104.213 87.5135 104.415C87.7764 104.574 87.9817 104.748 88.2677 104.809C88.1332 104.896 88.0358 105.038 88.0083 105.206C87.9392 105.645 87.7471 106.034 87.3574 106.274C86.9487 106.524 86.444 106.465 85.9932 106.571C85.3789 106.715 84.8741 107.081 84.475 107.562C83.6374 108.574 83.3618 110.203 82.084 110.795C81.3206 111.149 80.4173 111.105 79.597 111.095C78.6812 111.084 77.7919 111.097 76.903 111.346C76.0519 111.585 75.2706 111.991 74.5255 112.46C73.8271 112.899 73.0561 113.393 72.4634 113.99C72.2736 113.59 72.0834 113.193 71.9244 112.78C71.5492 111.802 71.284 110.79 71.118 109.757C70.9608 108.773 70.8879 107.774 70.8459 106.779C70.8245 106.283 70.8277 105.785 70.8062 105.289C70.8012 105.164 70.8063 105.029 70.8057 104.894C71.8926 104.048 73.0599 103.357 74.2353 102.648C74.2385 102.647 74.2415 102.644 74.2447 102.643C74.2811 102.62 74.3165 102.599 74.353 102.577C74.3515 102.575 74.3502 102.573 74.3477 102.571C74.4788 102.465 74.5632 102.337 74.6059 102.199C76.2478 100.776 77.539 98.9569 78.4133 96.9163C78.7798 96.0612 79.1248 95.1785 79.6485 94.403C80.206 93.5759 80.9249 93.0343 81.8554 92.6808C82.9431 92.2668 84.0789 91.9563 85.217 91.7162C85.8386 91.5856 86.5304 91.4177 87.2152 91.3328C87.6924 91.2744 88.1644 91.255 88.6079 91.3179C89.265 91.4103 89.6981 91.8449 90.1594 92.2811C90.6006 92.7 91.0397 93.1202 91.458 93.5622C91.8542 93.981 92.2338 94.4179 92.5744 94.8833C92.7787 95.1621 92.972 95.4515 93.1422 95.7536C93.202 95.8605 93.2781 95.9807 93.3208 96.0941C93.3637 96.2086 93.329 96.34 93.4614 96.3229C92.9161 96.401 92.7288 97.8101 93.2677 97.708C94.0254 97.5651 94.2911 96.6003 94.0367 95.8076C93.5828 94.3933 91.9157 92.8296 91.5828 92.4957C90.8469 91.7582 90.0591 90.7737 89.0013 90.5232C88.9862 90.5195 88.9701 90.5161 88.9551 90.5134C89.2128 90.1974 89.4016 89.8343 89.5797 89.4668C89.7631 89.0886 89.984 88.6539 90.0058 88.2303C90.0192 87.9605 89.672 87.8526 89.5462 88.1034C89.3634 88.4692 89.3091 88.9093 89.188 89.3009C89.0642 89.6982 88.9003 90.0796 88.7836 90.4795C88.3694 90.4084 87.9317 90.4078 87.4911 90.4456C87.9475 89.6259 88.7057 88.0604 88.7956 87.8603C89.2079 86.9341 89.5914 85.9849 89.9527 85.0372C90.3429 84.0107 90.6543 82.9539 91.0212 81.9192C91.2294 81.3326 91.4391 80.741 91.6803 80.1669C91.7637 79.9698 91.8548 79.7718 91.9636 79.5884C91.9847 79.5521 92.0131 79.5204 92.0389 79.4855C92.0707 79.4623 92.1033 79.4368 92.1218 79.4233C92.2872 79.2976 92.3195 79.0511 92.4256 78.8836C92.5951 78.6138 92.8276 78.5547 93.1296 78.5122C93.7731 78.4224 94.4232 78.3643 95.0689 78.2989C96.0182 78.2034 96.9677 78.1189 97.9188 78.0467C98.2066 78.0252 98.4934 78.0039 98.7815 77.9847C100.166 77.8892 101.553 77.8189 102.939 77.7736C104.166 77.7329 105.402 77.7654 106.627 77.6993C105.488 81.8126 104.162 85.8783 102.577 89.8415C102.561 89.8816 102.55 89.9212 102.545 89.96ZM94.731 101.187C94.4818 101.343 94.2442 101.527 94.027 101.73C94.0321 101.457 94.0055 101.173 93.9579 100.891C94.1828 101.077 94.4512 101.166 94.731 101.187ZM105.172 93.0168C105.153 93.0214 105.137 93.0336 105.13 93.0535C104.861 93.8568 105.124 94.6812 105.798 95.1967C106.152 95.4652 106.88 95.7258 106.923 96.2363C106.957 96.6493 106.555 97.0513 106.408 97.4148C106.271 97.7533 106.249 98.1084 106.436 98.4323C106.675 98.8468 107.206 98.9555 107.436 99.3635C107.727 99.8812 107.453 100.587 107.263 101.095C107.086 101.565 106.84 102.044 106.7 102.536C105.444 103.406 102.555 105.065 102.196 105.183C101.76 105.328 101.321 105.469 100.881 105.604C100.036 105.866 99.1877 106.117 98.3349 106.351C97.8495 106.485 97.3628 106.617 96.8742 106.735C96.4476 106.837 95.9679 106.963 95.5772 106.683C94.7893 106.115 95.041 104.962 95.4 104.24C95.4071 104.226 95.4055 104.214 95.4008 104.203C95.8075 104.051 96.2109 103.882 96.6177 103.748C97.4001 103.49 98.1912 103.255 98.9852 103.035C100.617 102.583 102.269 102.21 103.92 101.837C104.329 101.744 104.249 101.092 103.836 101.185C101.464 101.714 99.0782 102.234 96.7695 103.002C96.1905 103.193 95.6179 103.4 95.0509 103.622C94.7827 103.726 94.4997 103.872 94.2099 103.913C94.1922 103.915 94.1744 103.917 94.1567 103.918C93.5861 103.974 93.4405 103.498 93.7006 103.053C93.7328 102.998 93.7661 102.943 93.8008 102.891C94.2677 102.161 94.8985 101.633 95.5483 101.087C96.328 100.877 97.0882 100.534 97.8424 100.257C99.7041 99.5725 101.566 98.888 103.429 98.2043C103.794 98.0697 103.559 97.512 103.194 97.6456C101.78 98.1637 100.366 98.6816 98.9512 99.1996L96.8815 99.9583C96.4679 100.109 95.9608 100.371 95.4687 100.505C95.226 100.571 94.9871 100.607 94.7642 100.584C94.0443 100.508 93.8963 99.64 94.1306 99.0824C94.3931 98.4562 94.984 98.0095 95.5076 97.6065C96.4148 96.9071 97.4057 96.3607 98.3642 95.7545C98.54 95.6914 98.7159 95.6283 98.8918 95.5652C99.9147 95.1976 101.103 94.9286 102.039 94.3759C102.32 94.2117 102.097 93.7647 101.805 93.8092C101.037 93.9252 100.268 94.3026 99.5376 94.5618C98.747 94.8434 97.9552 95.124 97.1645 95.4044C97.0851 95.4326 96.6216 95.6495 96.5444 95.6247C96.4952 95.6086 96.4578 95.4497 96.4287 95.3457C96.3339 95.0034 96.2503 94.6418 96.2592 94.2848C96.2771 93.4848 96.884 93.0317 97.5073 92.6449C98.8953 91.7847 100.458 91.1568 102.045 90.7812C102.411 90.6948 102.779 90.6227 103.15 90.5623C103.587 90.4926 103.938 90.3687 104.215 90.7716C104.652 91.4064 104.957 92.2558 105.172 93.0168ZM106.305 117.93C105.84 116.86 105.775 115.662 105.408 114.557C105.219 113.987 104.989 113.427 104.746 112.878C104.55 112.435 104.259 111.974 104.171 111.496C104.166 111.464 104.201 111.441 104.229 111.452C104.716 111.653 105.136 112.169 105.452 112.576C105.829 113.063 106.136 113.585 106.402 114.14C106.931 115.247 107.423 116.601 107.083 117.829C106.982 118.195 106.479 118.33 106.305 117.93ZM94.8527 127.959C94.3308 127.687 93.9217 127.265 93.4624 126.905C93.0108 126.551 93.5545 125.846 94.0062 126.2C94.398 126.507 94.7554 126.907 95.1998 127.139C95.4137 127.251 95.5364 127.486 95.4362 127.723C95.3476 127.932 95.066 128.07 94.8527 127.959ZM90.5256 115.464C91.3507 114.973 92.1571 114.451 93.0367 114.06C93.5623 113.827 93.9037 114.65 93.3813 114.881C92.5713 115.241 91.8294 115.717 91.0696 116.168C90.5817 116.459 90.0344 115.756 90.5256 115.464ZM81.2618 116.39C80.9799 115.89 81.8051 115.553 82.0828 116.045C82.4025 116.613 82.7556 117.16 83.0753 117.727C83.357 118.227 82.532 118.564 82.2543 118.071C81.9346 117.504 81.5814 116.957 81.2618 116.39ZM73.5111 128.097C73.3932 128.305 73.1691 128.439 72.9275 128.333C72.7252 128.245 72.5719 127.96 72.6912 127.75C73.0396 127.135 73.3944 126.525 73.8231 125.962C74.1706 125.505 74.8753 126.049 74.528 126.505C74.1452 127.009 73.8223 127.547 73.5111 128.097ZM64.5824 69.178C65.0233 69.4024 65.4218 69.6929 65.8126 69.9942C66.2671 70.3445 65.7232 71.0493 65.2688 70.699C64.9395 70.4451 64.607 70.187 64.2351 69.9979C64.0203 69.8885 63.8993 69.6491 63.9988 69.4143C64.088 69.2039 64.368 69.069 64.5824 69.178ZM79.6697 81.6752C79.4998 82.1635 79.3515 82.6398 79.4058 83.163C79.4652 83.7328 78.5824 83.8471 78.523 83.2769C78.4519 82.5924 78.6271 81.9681 78.8498 81.3279C79.0381 80.786 79.8572 81.1355 79.6697 81.6752ZM83.0597 69.6369C83.4936 69.2592 84.0339 69.9674 83.6039 70.3418C83.2553 70.6451 82.9066 70.9488 82.558 71.2523C82.1244 71.6298 81.5841 70.9218 82.0139 70.5474C82.3625 70.2439 82.7111 69.9404 83.0597 69.6369ZM64.5427 92.3095C64.5341 92.881 63.6525 92.7508 63.661 92.1848C63.6743 91.3099 63.7164 90.4429 63.8414 89.5763C63.9233 89.0092 64.805 89.1333 64.7231 89.7011C64.5981 90.5677 64.5559 91.4348 64.5427 92.3095ZM62.7524 102.823C62.1826 102.884 62.0686 102.001 62.6385 101.94C63.1542 101.884 63.6772 101.954 64.1893 102.014C64.7589 102.081 64.6335 102.962 64.0644 102.896C63.6315 102.845 63.1885 102.776 62.7524 102.823ZM64.2392 123.343C64.0562 123.463 63.8669 123.574 63.6812 123.69C63.3093 123.922 62.9377 124.154 62.5662 124.386C61.7923 124.87 61.019 125.355 60.2467 125.841C58.7005 126.814 57.1382 127.763 55.587 128.728C54.0052 129.713 52.4291 130.708 50.8556 131.706C50.1142 132.176 49.3652 132.633 48.6182 133.094C47.9795 133.489 47.2103 134.133 46.4722 134.279C46.4342 134.287 46.4151 134.24 46.4338 134.212C46.6738 133.856 47.0985 133.612 47.4414 133.356C47.7916 133.095 48.1506 132.846 48.5074 132.593C49.2511 132.067 49.9963 131.545 50.7497 131.032C52.2568 130.008 53.7678 128.99 55.2792 127.972C56.8206 126.934 58.3592 125.891 59.9189 124.881C60.6532 124.405 61.3885 123.93 62.1243 123.457C62.5229 123.2 62.9218 122.944 63.3208 122.688C63.4931 122.578 63.6627 122.46 63.8402 122.358C64.0762 122.223 64.2684 122.22 64.5174 122.123C64.9234 121.965 65.1738 122.475 64.8818 122.749C64.6414 122.974 64.523 123.156 64.2392 123.343ZM59.5135 133.157C59.3945 132.949 59.5497 132.656 59.7518 132.574C59.9939 132.476 60.2145 132.602 60.3347 132.812C60.6527 133.37 61.0672 133.866 61.5698 134.265C62.0191 134.621 61.4757 135.326 61.0261 134.97C60.3962 134.469 59.9104 133.853 59.5135 133.157ZM53.3481 119.544C52.8937 119.194 53.4376 118.489 53.8919 118.84L55.1838 119.836C55.6382 120.187 55.0942 120.891 54.64 120.541L53.3481 119.544ZM41.3681 119.194C40.5766 119.542 39.6457 119.887 39.1755 120.662C39.1525 120.699 39.1008 120.661 39.1128 120.625C39.6387 119.044 41.6305 118.256 42.9889 117.55C43.9496 117.051 44.9448 116.612 45.9529 116.204C45.695 115.027 45.8179 113.714 45.765 112.517C45.7086 111.239 45.6318 109.96 45.5126 108.685C45.3912 107.385 45.2341 106.081 45.0245 104.792C44.8156 103.508 44.4838 102.256 44.2447 100.98C44.2216 100.857 44.3938 100.829 44.4444 100.927C45.0316 102.063 45.3872 103.361 45.6906 104.6C46.003 105.877 46.218 107.162 46.3676 108.468C46.5213 109.81 46.6159 111.157 46.6813 112.506C46.7124 113.146 46.7351 113.785 46.7613 114.425C46.7812 114.913 46.8234 115.395 46.7852 115.875C47.3946 115.639 48.0065 115.412 48.6169 115.189C50.5633 114.477 52.5224 113.798 54.4557 113.051C55.4047 112.684 56.3336 112.272 57.2763 111.891C58.1639 111.532 59.0959 111.115 60.0252 110.886C60.3569 110.804 60.4591 111.259 60.2564 111.444C59.5593 112.081 58.5896 112.587 57.7431 113.003C56.8934 113.42 55.9978 113.757 55.1159 114.098C53.2767 114.81 51.4086 115.44 49.5453 116.085C47.6847 116.729 45.8201 117.371 43.9929 118.105C43.113 118.459 42.2364 118.813 41.3681 119.194ZM33.8116 96.156C33.3573 96.5081 32.815 95.802 33.2677 95.4511C33.86 94.9923 34.5066 94.6215 35.1595 94.257C35.6607 93.9773 35.9983 94.8022 35.5042 95.0781C34.9173 95.4056 34.3439 95.7438 33.8116 96.156ZM36.2652 129.187C35.8092 129.537 35.2666 128.831 35.7213 128.483C36.3599 127.993 37.0813 127.629 37.7514 127.186C38.2281 126.872 38.7734 127.576 38.2953 127.891C37.6253 128.334 36.9038 128.698 36.2652 129.187ZM33.0615 110.671C33.5964 111.062 34.26 111.193 34.8904 111.354C35.44 111.493 35.3208 112.376 34.7655 112.235C33.9801 112.035 33.1841 111.863 32.5177 111.376C32.0541 111.037 32.5991 110.333 33.0615 110.671ZM35.07 84.7037C35.6204 84.8416 35.5011 85.7248 34.9451 85.5855C34.3285 85.431 33.6998 85.334 33.0832 85.1795C32.5329 85.0416 32.652 84.1586 33.208 84.2978C33.8246 84.4522 34.4534 84.5493 35.07 84.7037ZM43.0742 73.4593C43.6188 73.2936 43.9657 74.1139 43.4189 74.2804C42.7405 74.487 42.0752 74.7121 41.4503 75.0515C40.9457 75.3256 40.6075 74.501 41.1057 74.2305C41.7307 73.8911 42.3959 73.6659 43.0742 73.4593ZM49.3035 97.5173C48.7607 97.3322 49.1103 96.5134 49.6507 96.6975C50.2201 96.8916 50.8012 97.0236 51.4015 97.0725C51.9731 97.1192 51.846 98.0008 51.2766 97.9543C50.601 97.899 49.9439 97.7357 49.3035 97.5173ZM50.4281 83.3681C50.9583 83.1467 51.3007 83.9685 50.7728 84.1893C49.8439 84.5773 48.8702 84.8425 47.9305 85.2024C47.395 85.4075 47.0512 84.5861 47.5859 84.3813C48.5256 84.0213 49.4994 83.7564 50.4281 83.3681ZM62.183 77.4564C62.7552 77.4877 62.6268 78.3692 62.0582 78.3381C61.4529 78.3051 60.8535 78.3806 60.2541 78.4577C59.685 78.5309 59.5721 77.6479 60.1401 77.5748C60.8211 77.4872 61.4957 77.4189 62.183 77.4564ZM102.935 76.8858C101.474 76.934 100.016 77.0101 98.558 77.1141C98.4902 77.1194 98.4235 77.1236 98.3556 77.1289C98.346 77.1145 98.3342 77.1013 98.3222 77.0872C97.7605 76.4551 97.3234 75.807 96.921 75.0622C96.5367 74.3533 96.1582 73.6202 95.6276 73.0043C95.0226 72.3025 94.262 71.7906 93.4462 71.3671C93.0315 71.731 92.6561 72.143 92.3195 72.5718C91.9651 73.0229 91.2601 72.4793 91.6146 72.028C91.9137 71.647 92.2393 71.2887 92.5897 70.9577C92.1082 70.744 91.6199 70.5479 91.1428 70.3516C89.3547 69.6164 87.5363 68.9579 85.6922 68.3792C84.835 68.1094 83.9732 67.8829 83.1053 67.6527C82.6382 67.5291 82.1701 67.3526 81.6994 67.2003C81.691 66.8826 81.5519 66.5438 81.2846 66.3685C81.0874 66.2402 80.9422 66.2017 80.7165 66.1221C80.6669 66.1116 80.6369 66.1053 80.623 66.1015C80.6332 66.1025 80.663 66.1076 80.7124 66.1169C80.8318 66.1544 80.8386 66.1377 80.7331 66.0682C80.7046 65.8903 80.3037 65.5583 80.1994 65.3844C79.8375 64.7881 79.664 64.1305 79.1758 63.6078C78.5028 62.888 77.5061 62.7115 76.6479 63.096C76.4321 62.1533 76.2792 61.1599 75.8094 60.3543C75.7965 60.3325 75.7632 60.3266 75.7522 60.3538C75.4594 61.0414 75.5193 61.7572 75.5857 62.4981C75.6474 63.1937 75.7651 63.8977 75.9445 64.5736C75.8928 64.6251 75.8397 64.6747 75.7843 64.7233C75.5237 64.9476 75.2356 65.1318 74.9272 65.2806C74.3397 65.5627 73.7077 65.734 73.0683 65.848C71.4176 66.1418 69.6842 66.195 68.0141 66.1211C66.3248 66.0462 63.7362 65.9405 62.1594 65.3036C61.1189 64.8838 60.1381 64.3337 59.1476 63.8063C59.3398 62.7043 59.2767 61.5546 58.8301 60.7023C58.7766 60.6003 58.6062 60.6021 58.5906 60.7332C58.4934 61.6141 58.5435 62.4806 58.3766 63.3605C58.3737 63.3732 58.371 63.3871 58.3682 63.3997C58.2745 63.3524 58.181 63.3061 58.0875 63.2598C57.8719 63.1541 57.6142 63.2873 57.5193 63.4902C56.0008 66.7392 53.0047 67.3009 49.9043 68.2465C46.5113 69.2812 43.1068 70.3646 39.9199 71.9439C36.8723 73.4549 34.0306 75.4486 31.9244 78.1507C31.4477 78.7625 31.0109 79.4051 30.6061 80.0694C31.0805 80.068 31.5553 80.0998 32.0308 80.1844C32.5939 80.2845 32.4713 81.1666 31.906 81.066C31.2948 80.9573 30.6892 80.9427 30.0834 80.9747C28.7323 83.431 27.7815 86.1412 26.9985 88.7891C25.4965 93.866 24.7755 99.1594 24.812 104.449C25.134 104.195 25.4636 103.95 25.8037 103.718C26.2764 103.395 26.821 104.099 26.3478 104.422C25.8223 104.781 25.3167 105.167 24.8315 105.577C24.8945 107.886 25.101 110.192 25.4509 112.476C26.2848 117.92 27.7475 123.446 30.0875 128.441C31.2354 130.892 32.6465 133.288 34.54 135.241C35.3969 136.125 36.3408 136.901 37.4136 137.511C37.9332 137.808 38.4754 138.062 39.0388 138.263C39.7647 138.524 40.6669 138.524 41.3177 138.942C41.5318 139.079 41.7084 139.274 41.8521 139.501C41.8463 139.968 41.8979 140.43 42.083 140.873C42.1413 141.011 42.2645 141.114 42.4053 141.153C42.4127 141.192 42.4176 141.231 42.4225 141.269C42.4248 141.286 42.4518 141.287 42.4529 141.269C42.454 141.234 42.4551 141.199 42.456 141.163C42.5009 141.172 42.547 141.173 42.5934 141.167C44.2706 140.957 45.9438 140.699 47.6151 140.426C47.434 140.045 47.2425 139.669 47.0562 139.289C46.8032 138.772 47.6265 138.432 47.8773 138.944C48.0952 139.389 48.3198 139.828 48.5269 140.276C50.3168 139.977 52.1045 139.664 53.8916 139.373C57.6927 138.754 61.5036 138.219 65.3117 137.646C71.2253 136.755 77.1651 135.726 83.1367 135.212C83.2858 134.749 83.4607 134.294 83.6232 133.836C83.8148 133.295 84.6341 133.644 84.4431 134.183C84.3301 134.501 84.2113 134.816 84.1007 135.134C85.3116 135.041 86.5238 134.968 87.7375 134.926C89.8084 134.854 91.8787 134.934 93.95 134.882C96.0559 134.83 98.084 134.529 100.101 133.92C100.464 133.81 100.654 133.558 100.708 133.268C100.711 133.266 100.713 133.264 100.715 133.26C100.805 133.123 100.891 133.008 100.982 132.905C101.095 132.81 101.218 132.725 101.366 132.646C101.642 132.498 101.936 132.391 102.237 132.307C102.568 132.212 102.91 132.164 103.242 132.078C103.522 132.005 103.793 131.915 104.063 131.813C104.547 131.629 105.002 131.412 105.447 131.145C105.836 130.912 106.174 130.606 106.489 130.279C107.147 129.654 107.688 128.896 108.147 128.12C108.414 127.668 108.66 127.202 108.876 126.722C109.254 125.89 109.557 125.037 109.863 124.177C109.981 123.919 110.086 123.657 110.178 123.391C109.345 123.258 108.51 123.17 107.657 123.266C107.088 123.33 106.974 122.447 107.544 122.383C108.521 122.273 109.473 122.381 110.425 122.535C110.454 122.41 110.482 122.285 110.506 122.159C110.582 121.892 110.639 121.621 110.681 121.349C110.709 121.224 110.738 121.099 110.767 120.974C110.813 120.548 110.859 120.122 110.906 119.695C111.02 119.007 111.091 118.315 111.119 117.619C111.159 117.158 111.175 116.697 111.167 116.233C111.179 115.107 111.162 113.986 111.026 112.865C110.924 112.177 110.791 111.494 110.628 110.819C110.535 110.357 110.422 109.901 110.289 109.45C110.106 108.778 109.925 108.112 109.68 107.457C109.503 107.016 109.326 106.574 109.149 106.132C108.731 105.218 108.263 104.329 107.744 103.468C107.715 103.414 107.587 103.302 107.52 103.31C107.469 103.315 107.404 103.371 107.435 103.43C107.438 103.435 107.441 103.441 107.444 103.446C107.414 103.397 107.386 103.347 107.356 103.298C107.33 103.252 107.24 103.165 107.18 103.174C107.177 103.174 107.174 103.175 107.169 103.176C107.183 103.164 107.196 103.147 107.208 103.129C107.544 102.609 107.721 101.959 107.935 101.379C108.112 100.901 108.273 100.4 108.272 99.8847C108.27 99.4328 108.138 99.0044 107.812 98.6807C107.441 98.3122 106.819 98.1974 107.074 97.563C107.365 96.8411 107.845 96.1856 107.193 95.4922C106.861 95.1389 106.388 94.9825 106.013 94.6863C105.582 94.3436 105.333 93.8428 105.274 93.3062C105.299 93.3165 105.329 93.306 105.336 93.2713C105.531 92.2632 105.162 91.2316 104.713 90.3324C104.468 89.8446 104.071 89.7532 103.628 89.7847C105.054 85.8139 106.35 81.7991 107.441 77.7223C107.478 77.5886 107.513 77.4551 107.548 77.3214C107.601 77.1215 107.405 76.89 107.211 76.8723C105.797 76.7485 104.352 76.8374 102.935 76.8858Z" fill="black"/>
<path fill-rule="evenodd" clip-rule="evenodd" d="M84.0962 34.435C82.7919 27.6243 79.5599 20.1289 72.5689 17.6046C57.3673 13.6695 40.2499 30.7292 41.1698 45.7814C41.4783 50.9347 45.0348 56.1502 50.4008 56.9015C51.7502 58.2794 53.6131 58.9868 55.4376 59.574C77.2956 67.5586 89.4137 57.2107 84.0962 34.435Z" fill="white"/>
<path fill-rule="evenodd" clip-rule="evenodd" d="M88.2117 29.5629C87.2282 27.6456 86.2058 25.7489 85.1458 23.8729C84.1135 22.0471 83.1516 20.1698 81.9417 18.4598C74.715 8.24647 64.1467 9.61048 58.8686 11.7481C55.8781 10.8931 50.6162 11.9223 47.8084 13.4044C43.263 15.8039 38.3468 23.5697 36.7631 26.9781C33.2667 34.5035 31.7195 44.1188 35.6763 51.7826C36.1935 52.7842 36.8057 53.6947 37.4746 54.562C37.1898 55.0742 36.8498 55.5685 36.466 56.0606C35.3254 57.523 34.1793 58.9428 33.238 60.5477C32.3027 62.1426 31.5711 63.8047 31.0978 65.5943C30.2054 68.9691 30.611 72.6077 32.7328 75.4442C34.5789 77.9122 37.4963 79.5509 40.5194 79.3529C40.6761 79.3545 40.8328 79.3542 40.9897 79.3498C41.4714 79.953 42.0337 80.493 42.6544 80.947C44.5565 82.3397 48.7013 82.6451 51.0114 82.4008C51.1417 82.4805 51.2732 82.56 51.4045 82.6384C52.957 83.5657 54.5803 84.4939 56.3 85.0741C57.465 85.468 58.9596 85.7295 60.0531 85.1956C60.6165 85.4752 61.458 85.2926 61.9357 84.9425C62.721 84.3677 63.3003 83.4402 63.6077 82.5276C64.3529 80.312 63.8146 78.0622 63.2667 75.8687C62.6622 73.4458 62.0687 71.0203 61.4709 68.5965C61.003 66.7013 60.521 64.7753 59.697 62.9978C59.2706 62.0766 58.7554 61.2051 58.1313 60.4038C58.1352 60.3292 58.1235 60.2567 58.0937 60.191C57.8556 59.6674 57.4722 59.4263 57.0138 59.1085C56.9547 59.0679 56.8955 59.0261 56.8372 58.9832C56.6017 58.7757 56.354 58.5866 56.0952 58.4327C55.9928 58.3527 55.8915 58.2716 55.7901 58.1904C54.947 57.5082 54.1395 56.781 53.4029 55.9852C52.6884 55.2135 52.0276 54.3967 51.3911 53.5599C50.7438 52.7088 50.2631 51.7397 49.6177 50.8951C49.5624 50.8226 49.4456 50.822 49.39 50.8953C49.2485 51.0853 49.1678 51.2864 49.2132 51.4814L49.1331 51.5041C49.0637 51.2101 48.7576 51.0028 48.393 51.116C47.8471 51.2852 47.3927 51.3809 46.8853 51.2579C46.8975 50.6829 46.903 50.1078 46.9072 49.5316C46.914 48.4716 46.9104 47.4095 46.8881 46.3498C47.1691 46.3798 47.4516 46.4387 47.7318 46.5237C48.1311 46.6438 48.5169 46.8252 48.8575 47.0651C49.1933 47.3022 49.4488 47.6474 49.84 47.7921C50.2899 47.9573 50.7518 47.5286 50.5667 47.0678C50.1918 46.1366 48.7024 45.7679 47.8015 45.699C47.4921 45.675 47.1808 45.6882 46.8737 45.7346C46.8567 45.0546 46.8319 44.3756 46.7959 43.697C46.7791 43.376 46.7602 43.0553 46.74 42.7336C47.3954 42.4392 48.118 42.2831 48.8402 42.2887C49.0982 42.445 49.356 42.5991 49.6063 42.7564C50.4014 43.2574 51.1936 43.7622 51.9784 44.2791C52.0494 44.3249 52.1193 44.3709 52.1904 44.4178C52.6564 44.7246 53.1333 44.2995 52.9968 43.7976C51.8803 39.6848 54.0152 36.0231 56.6851 33.0552C59.6405 29.7689 65.641 28.6562 68.9554 23.1967C70.8239 23.3323 75.0309 23.9082 77.0534 26.3647C79.8854 29.8073 80.0117 33.203 80.7389 37.4289C81.4665 41.6581 82.4937 46.0349 82.0691 50.3522C81.6775 54.3331 79.6924 57.9475 76.1471 59.949C76.0592 59.9985 75.9701 60.047 75.8808 60.0944C74.0403 61.0736 71.9557 61.5525 69.8711 61.4311C67.5636 61.2958 65.55 60.5077 63.5124 59.4815C63.395 59.4237 63.2562 59.592 63.3519 59.6896C66.2442 62.6442 71.2369 63.1117 74.9737 61.7509C75.1484 61.6868 75.3215 61.6196 75.4929 61.5481C74.9515 64.1346 75.4755 66.8294 76.9079 69.095C77.7694 70.4581 78.9599 71.5802 80.3403 72.4085C81.8616 73.3207 83.6881 73.9803 84.8436 75.3874C85.9021 76.6769 85.845 78.2865 84.4475 79.2904C84.0955 79.5445 84.0354 80.2266 84.4482 80.4695C84.606 80.5614 84.764 80.6554 84.925 80.7468C85.8478 81.2729 88.3116 82.1667 88.6914 82.1625C92.0642 82.1278 93.9831 79.4005 95.0432 76.3386C96.2881 72.7445 95.3199 68.6855 93.053 65.7086C91.2345 63.32 87.9806 61.1549 88.7223 57.7391C88.9867 56.519 89.7071 55.4151 90.4155 54.4104C91.2238 53.266 92.1111 52.1775 92.876 51.0017C93.6364 49.8343 94.2833 48.5873 94.5566 47.2101C94.9554 45.1973 94.364 43.153 93.6287 41.29C92.0522 37.2905 90.1716 33.3862 88.2117 29.5629Z" fill="black"/>
</g>
<path fill-rule="evenodd" clip-rule="evenodd" d="M70.9687 56.5993C70.1878 56.3924 69.4607 55.973 68.8935 55.3906C68.6963 55.1881 68.6221 54.957 68.6295 54.7359C68.6377 54.4873 68.7533 54.248 68.9307 54.0746C69.1085 53.9007 69.3456 53.7957 69.5887 53.8023C69.8 53.808 70.0207 53.8947 70.2142 54.1088L70.2544 54.1514C70.5923 54.5036 71.0085 54.7745 71.4622 54.9253C71.8996 55.0705 72.372 55.1037 72.8416 54.9883C73.736 54.7687 74.2982 54.1971 74.8771 53.4447C74.9486 53.3499 75.0199 53.2525 75.0914 53.1536C75.1334 53.0669 75.1994 53.0062 75.2766 52.9688C75.3622 52.9273 75.4637 52.9159 75.5607 52.9363C75.6542 52.956 75.7418 53.0048 75.8056 53.0767C75.8662 53.1449 75.9071 53.2337 75.9114 53.3412C75.9397 54.0399 75.6581 54.703 75.2076 55.2532C74.7073 55.8644 74 56.3338 73.3058 56.556C72.5411 56.8008 71.7296 56.8009 70.9687 56.5993ZM61.9704 42.1897C61.9149 41.0349 63.6221 40.5506 63.9413 41.6593C64.2271 42.6524 64.1647 43.6067 63.826 44.5777C63.5025 45.5054 62.354 45.2403 62.1687 44.4575C61.9204 43.4082 62.0048 42.9081 61.9704 42.1897ZM75.1555 39.9735C75.3572 39.6243 75.6796 39.3621 76.1152 39.4305C77.4764 39.6445 77.3301 41.5566 76.9864 42.5224C76.7996 43.047 76.0067 43.2762 75.5851 42.89C74.8979 42.2602 74.4304 40.8856 75.0982 40.0916C75.1141 40.053 75.1322 40.0137 75.1555 39.9735ZM62.8285 36.9942L63.031 36.9312C63.6576 36.7376 64.4409 36.5282 64.9608 36.985C65.2365 37.2272 65.3849 37.7244 65.0954 38.0277C64.5862 38.5613 63.9345 38.4641 63.2582 38.591C62.7008 38.6957 62.1731 38.8583 61.6522 39.0827C60.5094 39.575 59.6224 40.3189 58.6967 41.1296C58.5752 41.2359 58.4175 41.0834 58.4649 40.9508C58.902 39.7294 59.9143 38.6418 60.9759 37.9214C61.5425 37.5369 62.173 37.1973 62.8285 36.9942ZM73.3135 35.1191L73.4762 35.1311C75.2485 35.2691 77.5837 35.7003 78.6197 37.29C78.6818 37.5256 78.6555 37.5813 78.6331 37.6183L78.6257 37.6306C78.6073 37.6621 78.5948 37.7039 78.4951 37.7499C78.4654 37.7468 78.4354 37.7432 78.4049 37.7393C78.0177 37.6895 77.7038 37.5925 77.3988 37.4892L77.0679 37.3761C76.6841 37.2457 76.2979 37.1222 75.8958 37.0461C75.0376 36.8837 74.1661 36.8039 73.2928 36.8138C73.1036 36.816 72.9159 36.7763 72.7604 36.6867C72.6127 36.6017 72.4917 36.4732 72.4206 36.2909C72.3284 36.0549 72.322 35.8681 72.4245 35.6313C72.5015 35.4534 72.6275 35.3207 72.7806 35.2341C72.9367 35.1459 73.1222 35.1059 73.3135 35.1191Z" fill="black"/>
</svg>
